<?xml version="1.0" encoding="utf-8"?>
<svg viewBox="100.559 102.518 120.134 120.134" xmlns="http://www.w3.org/2000/svg">
  <path fill="#000" d="M 197.755 148.394 C 193.089 165.112 178.316 176.776 160.82 177.164 C 143.325 176.776 128.551 165.112 123.886 148.394 C 123.886 148.394 132.439 157.336 123.886 148.394 C 126.219 151.116 129.718 152.282 133.217 152.282 C 136.716 152.282 140.215 151.116 142.548 148.394 C 144.88 151.116 148.379 152.282 151.878 152.282 C 155.377 152.282 158.876 151.116 161.209 148.394 C 163.542 151.116 167.041 152.282 170.54 152.282 C 174.039 152.282 177.538 151.116 179.871 148.394 C 182.203 151.116 185.703 152.282 189.202 152.282 C 192.701 152.282 195.422 151.116 197.755 148.394 M 198.144 139.841 C 198.144 119.236 181.426 102.518 160.82 102.518 C 140.215 102.518 123.497 119.236 123.497 139.841 L 156.933 139.841 C 152.656 138.286 149.934 134.398 149.934 129.733 C 149.934 123.901 154.989 118.847 160.82 118.847 C 166.652 118.847 171.706 123.901 171.706 129.733 C 171.706 134.009 168.985 138.286 165.097 139.841 L 198.144 139.841 M 163.153 222.652 C 163.931 190.772 188.813 163.168 220.693 162.002 C 220.693 194.271 195.422 220.708 163.153 222.652 M 158.488 222.652 C 157.71 190.772 132.828 163.168 100.559 162.002 C 100.948 194.271 126.219 220.708 158.488 222.652" style=""/>
</svg>